<?xml version="1.0" standalone="no"?>
<!DOCTYPE svg PUBLIC "-//W3C//DTD SVG 20010904//EN"
 "http://www.w3.org/TR/2001/REC-SVG-20010904/DTD/svg10.dtd">
<svg version="1.0" xmlns="http://www.w3.org/2000/svg"
 width="904.000000pt" height="904.000000pt" viewBox="0 0 904.000000 904.000000"
 preserveAspectRatio="xMidYMid meet">
<metadata>
Created by potrace 1.14, written by Peter Selinger 2001-2017
</metadata>
<g transform="translate(0.000000,904.000000) scale(0.100000,-0.100000)"
fill="#000000" stroke="none">
<path d="M1658 7075 c-2 -2 -42 -6 -89 -9 -48 -3 -93 -8 -100 -10 -8 -3 -31
-7 -51 -10 -43 -7 -184 -43 -213 -56 -150 -64 -235 -119 -311 -202 -73 -79
-126 -189 -145 -298 -10 -54 -13 -185 -5 -225 2 -11 7 -42 11 -70 6 -46 63
-233 84 -280 66 -145 93 -197 151 -295 96 -162 312 -460 405 -556 5 -6 37 -42
70 -80 83 -95 400 -411 515 -514 52 -47 97 -88 100 -91 3 -3 64 -54 135 -113
169 -141 163 -136 210 -171 22 -16 42 -32 45 -35 3 -3 25 -21 50 -40 25 -19
52 -40 60 -47 53 -43 193 -143 200 -143 4 0 10 -4 12 -9 8 -22 683 -471 707
-471 5 0 11 -4 13 -8 5 -13 352 -215 558 -324 52 -28 100 -54 105 -59 22 -16
475 -239 600 -294 265 -118 389 -170 605 -252 133 -51 474 -170 510 -178 8 -1
76 -21 150 -43 116 -35 151 -44 215 -58 6 -1 46 -11 90 -22 44 -12 91 -23 105
-26 77 -15 179 -35 205 -41 44 -8 290 -43 360 -50 33 -4 115 -8 181 -10 67 -2
125 -5 130 -6 5 -1 11 -1 14 0 3 1 50 4 105 6 294 14 499 70 663 182 144 98
233 231 268 403 7 35 7 193 1 240 -22 151 -101 379 -178 514 -6 11 -23 40 -36
65 -37 67 -213 332 -240 361 -13 14 -23 28 -23 32 0 3 -6 13 -13 20 -11 12
-90 108 -112 136 -5 7 -17 21 -25 30 -9 9 -47 53 -85 97 -88 102 -411 424
-535 534 -52 47 -99 89 -105 95 -5 6 -32 29 -60 51 -27 22 -61 50 -75 62 -89
78 -426 343 -436 343 -3 0 -11 6 -18 13 -44 43 -480 341 -713 488 -130 81
-166 103 -338 204 -256 150 -385 218 -720 385 -154 76 -338 164 -410 195 -71
31 -143 62 -160 70 -16 7 -66 28 -110 45 -44 18 -91 37 -105 43 -14 6 -27 11
-30 12 -3 1 -16 6 -30 12 -202 82 -761 266 -879 289 -14 3 -57 14 -97 25 -73
20 -93 25 -149 35 -16 2 -46 9 -65 14 -40 10 -52 13 -210 40 -63 11 -135 22
-160 25 -25 2 -61 7 -80 10 -96 13 -180 18 -342 20 -98 1 -179 1 -180 0z m392
-89 c36 -3 85 -9 110 -12 25 -3 61 -7 80 -9 19 -2 49 -6 66 -9 17 -3 48 -8 68
-11 21 -2 46 -7 55 -9 9 -3 32 -7 52 -10 32 -5 123 -24 319 -66 30 -7 61 -17
68 -23 7 -5 15 -7 18 -4 3 3 17 2 30 -3 14 -6 35 -12 49 -14 13 -3 61 -16 107
-30 46 -15 92 -28 103 -30 33 -7 390 -130 520 -179 644 -243 1349 -596 1950
-975 83 -52 160 -100 172 -106 13 -6 23 -14 23 -18 0 -5 5 -8 10 -8 6 0 35
-18 65 -40 30 -22 56 -40 59 -40 8 0 198 -134 393 -277 185 -136 440 -336 507
-398 12 -11 51 -45 86 -75 36 -30 75 -64 87 -75 11 -11 60 -56 109 -100 157
-144 303 -293 494 -505 76 -84 268 -334 315 -409 6 -9 27 -41 47 -71 127 -196
253 -479 273 -615 3 -23 8 -52 11 -65 10 -51 4 -197 -11 -255 -41 -159 -146
-281 -306 -359 -85 -41 -228 -86 -319 -100 -175 -28 -499 -28 -705 -1 -16 2
-59 7 -95 10 -35 4 -67 8 -70 10 -3 1 -27 6 -55 9 -27 4 -57 9 -65 11 -8 2
-31 7 -50 10 -19 3 -43 8 -53 11 -11 3 -29 7 -40 9 -32 4 -207 44 -242 55 -16
5 -41 11 -55 14 -68 13 -548 158 -575 175 -5 3 -14 6 -20 7 -8 2 -95 32 -145
51 -8 3 -19 7 -25 9 -50 12 -521 210 -720 302 -200 92 -544 267 -750 381 -56
32 -356 207 -399 234 -406 253 -604 386 -861 577 -94 69 -179 133 -190 142
-11 9 -69 56 -130 105 -60 48 -115 92 -121 98 -6 5 -35 30 -64 55 -98 82 -223
194 -313 280 -250 239 -377 374 -563 600 -100 122 -284 386 -284 409 0 6 -3
11 -7 11 -5 0 -13 10 -19 23 -6 12 -36 72 -67 132 -51 101 -104 234 -123 310
-4 17 -8 35 -10 40 -21 76 -27 281 -11 340 14 50 40 113 62 150 27 47 117 145
133 145 6 0 12 4 14 9 7 18 177 107 222 115 6 2 31 9 56 16 25 7 52 14 60 16
113 20 160 26 231 32 95 8 341 7 439 -2z"/>
<path d="M3799 5030 c-1 -3 -2 -209 -3 -457 l-1 -453 60 -1 c186 -2 366 1 405
6 57 7 145 47 171 77 49 57 64 100 63 183 0 119 -41 184 -134 217 l-31 10 33
20 c18 11 44 31 57 46 35 36 59 143 39 178 -3 5 -8 20 -12 34 -13 55 -94 117
-176 136 -39 8 -469 13 -471 4z m498 -128 c36 -26 55 -77 48 -132 -13 -100
-50 -116 -267 -116 l-163 1 -3 137 -3 137 73 3 c40 2 120 1 178 -2 89 -4 110
-9 137 -28z m21 -380 c46 -33 66 -77 64 -141 -2 -64 -25 -108 -72 -135 -30
-18 -55 -21 -200 -22 -91 -2 -173 0 -182 2 -16 5 -18 21 -18 158 0 84 3 156 7
160 4 4 89 6 188 4 170 -3 182 -4 213 -26z"/>
<path d="M4599 5028 c-1 -5 -1 -17 -1 -28 0 -11 0 -31 1 -45 l1 -26 208 1
c114 0 233 1 265 0 l57 0 -81 -102 c-44 -57 -91 -116 -105 -133 -46 -57 -206
-260 -227 -289 -12 -15 -34 -42 -48 -60 -86 -105 -99 -128 -99 -177 0 -32 4
-49 13 -50 13 0 571 0 652 1 l50 0 1 49 c0 42 -2 50 -20 53 -12 2 -139 3 -283
2 -145 0 -263 3 -263 6 0 4 11 19 25 34 14 15 25 29 25 31 0 3 7 13 15 22 42
52 123 154 145 183 14 18 30 38 35 44 12 12 186 235 225 287 14 18 37 47 52
64 24 28 34 74 29 130 -1 12 -670 15 -672 3z"/>
</g>
</svg>
