<svg width="113" height="88" viewBox="0 0 113 88" fill="none" xmlns="http://www.w3.org/2000/svg">
<path d="M55.799 40.44C55.799 38.664 54.391 37.56 52.055 37.56H47.447V49H52.375C54.743 49 56.247 47.784 56.247 45.672C56.247 43.96 55.223 43.048 54.023 42.84V42.808C54.967 42.488 55.799 41.848 55.799 40.44ZM48.887 42.344V38.84H52.439C53.751 38.84 54.359 39.56 54.359 40.6C54.359 41.64 53.911 42.344 52.279 42.344H48.887ZM48.887 43.624H52.839C54.039 43.624 54.807 44.44 54.807 45.672C54.807 46.744 54.359 47.72 52.519 47.72H48.887V43.624ZM57.4719 37.56V38.84H64.1279V38.872L57.1519 47.72V49H66.0479V47.72H58.9119V47.688L65.8879 38.84V37.56H57.4719Z" fill="white"/>
<path d="M103.348 70.6375C102.103 72.7943 99.6742 74.2078 96.2195 74.8474C92.7672 75.4866 88.3578 75.3375 83.2773 74.4285C73.1206 72.6111 60.3926 67.7767 47.5154 60.342C34.6381 52.9073 24.0874 44.3018 17.4352 36.4145C14.1076 32.4692 11.7738 28.725 10.6012 25.4157C9.42779 22.104 9.43781 19.2943 10.683 17.1375C11.9282 14.9807 14.3565 13.5672 17.8112 12.9276C21.2635 12.2884 25.6729 12.4375 30.7535 13.3465C40.9102 15.1639 53.6381 19.9983 66.5154 27.433C79.3926 34.8677 89.9433 43.4732 96.5956 51.3605C99.9231 55.3058 102.257 59.05 103.43 62.3593C104.603 65.671 104.593 68.4807 103.348 70.6375Z" stroke="white"/>
</svg>
